HIERARCHY
ROOT Hips
{
	OFFSET 0.000000 0.000000 0.000000
	CHANNELS 6 Xposition Yposition Zposition Xrotation Yrotation Zrotation
	JOINT LeftUpLeg_virtual
	{
		OFFSET 0.000000 0.000000 0.000000
		CHANNELS 3 Xrotation Yrotation Zrotation
		JOINT LeftUpLeg
		{
			OFFSET 15.427100 -6.655098 0.678600
			CHANNELS 3 Xrotation Yrotation Zrotation
			JOINT LeftLeg
			{
				OFFSET 4.081073 -39.591068 13.024000
				CHANNELS 3 Xrotation Yrotation Zrotation
				JOINT LeftFoot
				{
					OFFSET -4.081074 -37.707932 -15.979700
					CHANNELS 3 Xrotation Yrotation Zrotation
					JOINT LeftToeBase
					{
						OFFSET 5.346399 -15.068900 20.645000
						CHANNELS 3 Xrotation Yrotation Zrotation
						JOINT LeftToe_End
						{
							OFFSET 2.754700 0.931300 11.300900
							CHANNELS 3 Xrotation Yrotation Zrotation
							End Site
							{
								OFFSET 0 0 0
							}
						}
					}
				}
			}
		}
	}
	JOINT RightUpLeg_virtual
	{
		OFFSET 0.000000 0.000000 0.000000
		CHANNELS 3 Xrotation Yrotation Zrotation
		JOINT RightUpLeg
		{
			OFFSET -15.569500 -6.655098 0.678600
			CHANNELS 3 Xrotation Yrotation Zrotation
			JOINT RightLeg
			{
				OFFSET -4.081825 -39.591045 13.023800
				CHANNELS 3 Xrotation Yrotation Zrotation
				JOINT RightFoot
				{
					OFFSET 4.081824 -37.707954 -15.979600
					CHANNELS 3 Xrotation Yrotation Zrotation
					JOINT RightToeBase
					{
						OFFSET -5.346400 -15.068900 20.645000
						CHANNELS 3 Xrotation Yrotation Zrotation
						JOINT RightToe_End
						{
							OFFSET -2.754700 0.931300 11.300900
							CHANNELS 3 Xrotation Yrotation Zrotation
							End Site
							{
								OFFSET 0 0 0
							}
						}
					}
				}
			}
		}
	}
	JOINT Spine_virtual
	{
		OFFSET 0.000000 0.000000 0.000000
		CHANNELS 3 Xrotation Yrotation Zrotation
		JOINT Spine
		{
			OFFSET -0.279200 12.230698 -2.892100
			CHANNELS 3 Xrotation Yrotation Zrotation
			JOINT Spine1
			{
				OFFSET -0.232667 10.192268 -1.242267
				CHANNELS 3 Xrotation Yrotation Zrotation
				JOINT Spine1_split
				{
					OFFSET -0.232667 10.192268 -1.242267
					CHANNELS 3 Xrotation Yrotation Zrotation
					JOINT Spine2
					{
						OFFSET -0.232667 10.192268 -1.242267
						CHANNELS 3 Xrotation Yrotation Zrotation
						JOINT Neck_virtual
						{
							OFFSET 0.000000 0.000000 0.000000
							CHANNELS 3 Xrotation Yrotation Zrotation
							JOINT Neck
							{
								OFFSET -0.418800 17.814194 8.416900
								CHANNELS 3 Xrotation Yrotation Zrotation
								JOINT Head
								{
									OFFSET 0.000000 7.031097 3.806800
									CHANNELS 3 Xrotation Yrotation Zrotation
									JOINT HeadTop_End
									{
										OFFSET 0.000000 24.646606 12.978600
										CHANNELS 3 Xrotation Yrotation Zrotation
										End Site
										{
											OFFSET 0 0 0
										}
									}
								}
							}
						}
						JOINT LeftShoulder_virtual
						{
							OFFSET 0.000000 0.000000 0.000000
							CHANNELS 3 Xrotation Yrotation Zrotation
							JOINT LeftShoulder
							{
								OFFSET 8.476499 7.247704 -3.868750
								CHANNELS 3 Xrotation Yrotation Zrotation
								JOINT LeftShoulder_split
								{
									OFFSET 8.476499 7.247704 -3.868750
									CHANNELS 3 Xrotation Yrotation Zrotation
									JOINT LeftArm
									{
										OFFSET 9.308998 -2.777710 0.208600
										CHANNELS 3 Xrotation Yrotation Zrotation
										JOINT LeftForeArm
										{
											OFFSET 29.972298 0.000000 0.000000
											CHANNELS 3 Xrotation Yrotation Zrotation
											JOINT LeftHand
											{
												OFFSET 26.026505 0.000000 0.000000
												CHANNELS 3 Xrotation Yrotation Zrotation
												End Site
												{
													OFFSET 0 0 0
												}
											}
										}
									}
								}
							}
						}
						JOINT RightShoulder_virtual
						{
							OFFSET 0.000000 0.000000 0.000000
							CHANNELS 3 Xrotation Yrotation Zrotation
							JOINT RightShoulder
							{
								OFFSET -7.570500 7.247704 -3.868750
								CHANNELS 3 Xrotation Yrotation Zrotation
								JOINT RightShoulder_split
								{
									OFFSET -7.570500 7.247704 -3.868750
									CHANNELS 3 Xrotation Yrotation Zrotation
									JOINT RightArm
									{
										OFFSET -9.308998 -2.777710 0.208500
										CHANNELS 3 Xrotation Yrotation Zrotation
										JOINT RightForeArm
										{
											OFFSET -29.972300 0.000000 0.000000
											CHANNELS 3 Xrotation Yrotation Zrotation
											JOINT RightHand
											{
												OFFSET -26.026505 0.000000 0.000000
												CHANNELS 3 Xrotation Yrotation Zrotation
												End Site
												{
													OFFSET 0 0 0
												}
											}
										}
									}
								}
							}
						}
					}
				}
			}
		}
	}
}
MOTION
Frames: 4
Frame Time: 0.03333333
8.439591 90.503235 13.596706 0.000000 0.000000 0.000000 -1.398575 8.939938 -3.792228 4.774743 11.459312 8.497510 16.960806 -6.296030 -0.412066 -23.363519 2.278264 0.752244 -1.765992 -0.781701 -0.806613 0.000000 0.000000 0.000000 -0.748945 7.697140 -4.025713 -30.957047 -7.181328 -3.725115 29.449293 -0.328269 0.704984 1.681849 2.551653 6.293896 3.827153 0.988158 1.105193 0.000000 0.000000 0.000000 -0.522810 8.437185 -3.911094 11.676182 -1.616071 2.306991 0.819367 -1.696930 0.870346 0.764674 -1.074927 0.490525 0.000000 0.000000 0.000000 -3.075261 -1.395549 1.027970 -0.997350 -0.151650 5.142986 -3.887050 -0.003075 -4.509827 0.000000 0.000000 0.000000 -3.270283 -1.598441 0.959627 0.851199 -1.025706 -3.248649 -1.586650 -0.662511 -0.123557 -0.805797 -10.073666 -74.612672 10.461697 -13.137233 -3.229818 0.000000 0.000000 0.000000 -3.326514 -1.862260 1.078332 2.385165 -0.151722 8.118698 -2.641143 1.124432 -1.552393 2.033583 10.497071 71.284342 11.192827 19.139862 3.203283 0.000000 0.000000 0.000000 
8.832204 91.220047 15.329197 0.000000 0.000000 0.000000 -1.226244 9.620876 -4.515462 6.692329 11.098492 8.466055 15.202459 -6.832965 -0.019954 -23.119876 2.917987 0.239100 -2.827797 -0.866895 -0.984971 0.000000 0.000000 0.000000 -0.524820 8.117273 -4.793472 -31.727096 -6.800316 -2.363064 24.183180 1.258045 0.519088 2.196620 3.117346 7.424154 4.253738 -0.356704 0.384334 0.000000 0.000000 0.000000 -0.233879 8.785922 -4.568409 11.719404 -1.765498 3.014932 0.550089 -1.890067 0.963689 0.722787 -0.996480 0.472775 0.000000 0.000000 0.000000 -3.217933 -1.546747 1.125707 -1.214381 -0.303062 4.980384 -4.157734 -0.066377 -5.235210 0.000000 0.000000 0.000000 -3.446653 -1.723956 0.947491 0.873836 -1.113794 -3.149985 -1.509826 -0.298441 -0.086515 -1.111835 -10.748536 -74.393027 10.703680 -13.642725 -3.623732 0.000000 0.000000 0.000000 -3.356222 -1.943728 1.158945 2.523776 -0.873395 8.097993 -2.654100 1.008002 -1.869915 2.142464 10.877586 71.154336 10.877605 18.740748 4.055135 0.000000 0.000000 0.000000 
9.149477 91.837265 17.198982 0.000000 0.000000 0.000000 -1.076717 10.355324 -5.165742 8.552212 10.189642 8.714845 13.622174 -7.164509 0.402766 -22.471210 3.975890 -0.153891 -3.472845 -0.926134 -1.461588 0.000000 0.000000 0.000000 -0.422980 8.925767 -5.510360 -32.247280 -6.283034 -1.409416 19.648619 2.808498 0.484780 3.153458 3.811982 7.997941 3.791569 -1.679292 -0.213613 0.000000 0.000000 0.000000 -0.069525 9.098354 -5.192071 12.024386 -2.049733 3.539254 0.254277 -2.170510 1.200329 0.531264 -0.736363 0.461368 0.000000 0.000000 0.000000 -3.385961 -1.803994 1.371688 -1.612669 -0.422490 4.633049 -4.557953 -0.232025 -5.884717 0.000000 0.000000 0.000000 -3.671601 -1.939086 1.090455 0.883898 -1.274653 -3.333061 -1.499597 0.225623 -0.178083 -1.115070 -11.556830 -73.976782 10.839136 -14.002942 -4.071069 0.000000 0.000000 0.000000 -3.477696 -2.135814 1.352736 2.632142 -1.522637 7.851028 -2.580858 1.011109 -2.090946 2.372899 11.445730 71.356024 10.479334 18.762711 4.646658 0.000000 0.000000 0.000000 
9.320929 92.175232 19.223984 0.000000 0.000000 0.000000 -1.028556 11.012092 -5.728751 10.525444 9.073138 9.283512 12.250015 -7.226163 0.837305 -22.207267 5.239571 -0.395850 -3.377479 -1.006035 -1.973898 0.000000 0.000000 0.000000 -0.458454 9.904966 -6.096449 -32.771791 -5.809967 -0.966891 16.106368 3.873561 0.599115 4.059632 4.261227 7.421906 3.806715 -2.777813 -0.530513 0.000000 0.000000 0.000000 -0.060606 9.243389 -5.733236 12.520264 -2.375329 3.849671 -0.052632 -2.488712 1.509157 0.411956 -0.319843 0.388209 0.000000 0.000000 0.000000 -3.538380 -2.116954 1.683559 -2.210565 -0.545423 4.227410 -5.091474 -0.493908 -6.400331 0.000000 0.000000 0.000000 -3.908189 -2.205063 1.335815 0.878430 -1.451523 -3.715491 -1.535054 0.671402 -0.237526 -0.917516 -12.462215 -73.445454 10.870226 -14.439686 -4.510038 0.000000 0.000000 0.000000 -3.645115 -2.400881 1.592048 2.685564 -2.078265 7.453421 -2.445278 1.093807 -2.111582 2.667409 12.119525 71.830251 10.005166 19.073981 5.034973 0.000000 0.000000 0.000000 
